<?xml version="1.0" standalone="no"?>
<!DOCTYPE svg PUBLIC "-//W3C//DTD SVG 20010904//EN"
 "http://www.w3.org/TR/2001/REC-SVG-20010904/DTD/svg10.dtd">
<svg version="1.0" xmlns="http://www.w3.org/2000/svg"
 width="447.000000pt" height="447.000000pt" viewBox="0 0 447.000000 447.000000"
 preserveAspectRatio="xMidYMid meet">
<metadata>
Created by potrace 1.14, written by Peter Selinger 2001-2017
</metadata>
<g transform="translate(0.000000,447.000000) scale(0.100000,-0.100000)"
fill="#000000" stroke="none">
<path d="M2019 4410 c-77 -7 -239 -33 -280 -46 -14 -4 -16 -17 -12 -92 3 -48
7 -88 8 -90 2 -2 47 6 101 18 54 11 132 24 175 27 l76 6 7 -1294 c3 -712 9
-1646 12 -2076 l7 -783 92 0 c91 0 93 1 99 25 4 14 1 877 -5 1918 -6 1041 -8
1966 -4 2056 l7 164 84 -7 c47 -4 119 -14 160 -22 112 -21 104 -27 104 75 l0
88 -57 12 c-153 29 -382 38 -574 21z"/>
<path d="M2920 4302 c0 -4 0 -450 0 -990 l0 -984 -122 7 c-68 4 -124 8 -125 9
-1 1 -3 331 -4 734 l-3 732 -91 0 -92 0 -6 -277 c-9 -380 -8 -3415 1 -3429 5
-9 26 -8 82 2 41 8 83 17 92 20 17 5 18 65 20 1017 l3 1012 130 0 130 0 3
-974 2 -974 34 6 c18 3 56 15 85 27 l51 22 0 1987 0 1987 -52 22 c-85 35 -138
52 -138 44z"/>
<path d="M1367 4243 l-78 -37 5 -1335 c8 -1893 16 -2601 30 -2601 6 0 46 -16
89 -34 78 -34 78 -34 86 -13 5 12 8 451 8 974 0 524 2 955 4 957 2 2 56 6 119
7 l115 4 8 -505 c4 -278 6 -735 3 -1016 l-4 -512 56 -10 c32 -6 76 -14 100
-17 l43 -5 -2 1874 -2 1875 -156 133 c-86 73 -197 170 -248 215 -50 46 -93 83
-95 83 -2 0 -38 -17 -81 -37z m265 -392 l105 -94 6 -240 c4 -132 7 -450 7
-706 l0 -466 -117 3 c-65 2 -119 5 -119 6 -1 0 -4 360 -8 799 -6 686 -5 798 7
795 8 -2 62 -45 119 -97z"/>
<path d="M3290 3543 c1 -829 19 -3165 25 -3171 3 -3 42 18 87 45 l83 51 8 123
c10 162 9 466 -3 1284 -5 369 -11 1005 -12 1414 l-2 744 -41 29 c-37 28 -128
78 -140 78 -3 0 -5 -269 -5 -597z"/>
<path d="M1018 4054 l-97 -65 -16 -77 c-9 -42 -22 -104 -30 -137 -8 -33 -19
-87 -24 -120 -11 -59 -25 -138 -75 -400 -13 -71 -33 -174 -42 -228 -10 -56
-23 -96 -28 -94 -6 2 -14 26 -18 53 -9 56 -33 183 -83 434 -19 96 -36 186 -37
200 l-3 25 -29 -30 c-52 -55 -177 -254 -246 -394 -106 -213 -167 -407 -207
-656 -25 -152 -24 -494 0 -654 67 -430 257 -820 559 -1151 37 -41 70 -71 74
-67 4 3 9 57 11 120 l5 114 -62 77 c-447 563 -557 1323 -288 1991 55 138 54
137 67 74 34 -163 184 -923 206 -1038 13 -74 28 -138 33 -143 10 -10 40 119
186 807 42 201 54 243 59 216 4 -18 7 -572 7 -1230 l0 -1197 33 -17 c17 -10
57 -33 87 -52 101 -64 93 -112 86 508 -3 298 -9 1139 -12 1870 -4 730 -9 1327
-13 1326 -3 0 -50 -30 -103 -65z"/>
<path d="M3638 3712 c-4 -108 -7 -503 -8 -878 l-1 -681 92 -6 c51 -4 186 -7
301 -7 200 0 208 -1 208 -19 0 -110 -60 -398 -115 -551 -56 -155 -187 -403
-262 -493 l-23 -29 -1 309 c-1 169 -1 372 1 451 l2 142 -101 0 -101 0 0 -664
c0 -594 2 -665 16 -677 14 -11 29 1 115 92 195 205 312 364 407 554 112 225
176 417 216 645 20 117 39 356 31 397 l-6 34 -290 -7 -289 -7 0 568 0 568 31
-43 c105 -145 204 -338 268 -522 38 -112 81 -292 81 -341 0 -24 2 -25 88 -29
99 -5 114 1 101 40 -4 15 -20 83 -34 152 -63 299 -211 623 -394 859 -71 92
-233 265 -291 311 l-37 29 -5 -197z"/>
</g>
</svg>
